<svg id="Layer_2" data-name="Layer 2" xmlns="http://www.w3.org/2000/svg" xmlns:xlink="http://www.w3.org/1999/xlink" viewBox="0 0 224.33 57.13"><defs><style>.cls-1{fill:#5b5b5b;}.cls-2{fill:#fff;}.cls-3{fill:#ffc82c;}.cls-4{fill:#757575;}.cls-5{fill:#2196f3;}.cls-6{fill:#ffc413;}</style><symbol id="MONOÇ_2" data-name="MONOÇ 2" viewBox="0 0 208.57 208.57"><path class="cls-1" d="M82.72,155.13s-8.57.4-17.71,9.54-17.69,3.09-17.69,3.09l2,2.69a66,66,0,0,0,39.31,24.77h0a66,66,0,0,0,14.11,1.35l1.5,0h0l1.5,0a66,66,0,0,0,14.11-1.35h0a66,66,0,0,0,39.31-24.77l2-2.69s-8.55,6.05-17.69-3.09-17.71-9.54-17.71-9.54"/><path class="cls-1" d="M151.72,108.89c0,27.91-21.23,52.17-47.43,52.17s-47.43-24.27-47.43-52.17S78.1,60,104.29,60,151.72,81,151.72,108.89Z"/><path class="cls-1" d="M150.38,97.52s8.54-6.17,13.45,4.15-5.26,21.79-5.26,21.79-4.37,5.83-10.07,3.69S150.38,97.52,150.38,97.52Z"/><path class="cls-1" d="M58.14,97.52s-8.54-6.17-13.45,4.15S50,123.46,50,123.46s4.37,5.83,10.07,3.69S58.14,97.52,58.14,97.52Z"/><circle class="cls-2" cx="86.55" cy="99.1" r="17.74"/><circle class="cls-2" cx="122.03" cy="99.1" r="17.74"/><ellipse class="cls-2" cx="104.29" cy="129.49" rx="35.49" ry="31.6"/><circle class="cls-1" cx="122.03" cy="104.21" r="6.32"/><circle class="cls-1" cx="86.55" cy="104.21" r="6.32"/><path class="cls-1" d="M92.72,123.16c1.67-3.7,6.22-6.35,11.57-6.35s9.89,2.65,11.57,6.35"/><ellipse class="cls-3" cx="104.29" cy="161.06" rx="4.54" ry="5.22"/><path class="cls-3" d="M106.47,161.13a12.08,12.08,0,0,0,.49,3.16l0.29,0.77,4.83,2.2c2.07,0.94,4.22,1.9,6.46,1.74a3.65,3.65,0,0,0,3.29-2.06c0.48-1.24,0-2.66-.44-3.91a10.66,10.66,0,0,1-.54-1.94h0a10.66,10.66,0,0,1,.54-1.94c0.45-1.26.92-2.67,0.44-3.91a3.65,3.65,0,0,0-3.29-2.06c-2.23-.15-4.39.8-6.46,1.74l-4.83,2.2-0.29.77a12.08,12.08,0,0,0-.49,3.16v0.07Z"/><path class="cls-3" d="M102.14,161.13a12.08,12.08,0,0,1-.49,3.16l-0.29.77-4.83,2.2c-2.07.94-4.22,1.9-6.46,1.74A3.65,3.65,0,0,1,86.78,167c-0.48-1.24,0-2.66.44-3.91a10.66,10.66,0,0,0,.54-1.94h0a10.66,10.66,0,0,0-.54-1.94c-0.45-1.26-.92-2.67-0.44-3.91a3.65,3.65,0,0,1,3.29-2.06c2.23-.15,4.39.8,6.46,1.74l4.83,2.2,0.29,0.77a12.08,12.08,0,0,1,.49,3.16v0.07Z"/><path class="cls-1" d="M104.29,208.57A104.29,104.29,0,1,1,104.29,0a12,12,0,0,1,0,24,80.29,80.29,0,1,0,80.29,80.29,12,12,0,0,1,24,0A104.4,104.4,0,0,1,104.29,208.57Z"/><path class="cls-1" d="M110.27,62.24S121.88,57,118,50.63c0,0,6.67,9.74,4.57,14.24S110.27,62.24,110.27,62.24Z"/></symbol></defs><title>logo-05</title><path class="cls-4" d="M165.34,44.69l-0.8,1a1.86,1.86,0,0,0-1.37-.71,1.59,1.59,0,0,0,0,3.18,2,2,0,0,0,1.37-.64l0.81,0.86a3.29,3.29,0,0,1-2.25,1,2.78,2.78,0,1,1,0-5.56A3.17,3.17,0,0,1,165.34,44.69Z"/><path class="cls-4" d="M172.67,46.54a3,3,0,1,1-3-2.76A2.81,2.81,0,0,1,172.67,46.54Zm-4.47,0a1.58,1.58,0,0,0,1.54,1.63A1.62,1.62,0,1,0,168.19,46.54Z"/><path class="cls-4" d="M179.41,49.27V45.73l-1.31,3h-0.9l-1.31-3v3.54h-1.24V43.81h1.52l1.48,3.25,1.48-3.25h1.51v5.46h-1.22Z"/><path class="cls-4" d="M187.74,49.27V45.73l-1.31,3h-0.9l-1.31-3v3.54H183V43.81h1.52L186,47.06l1.48-3.25H189v5.46h-1.22Z"/><path class="cls-4" d="M196.2,47a2.5,2.5,0,0,1-5,0V43.82h1.39V47a1.1,1.1,0,0,0,1.14,1.19,1.07,1.07,0,0,0,1.1-1.19V43.82h1.38V47Z"/><path class="cls-4" d="M202.25,49.27l-2.51-3.35v3.35h-1.3V43.82h1.22l2.51,3.36V43.82h1.29v5.45h-1.22Z"/><path class="cls-4" d="M205.81,49.27V43.82h1.38v5.45h-1.38Z"/><path class="cls-4" d="M212.05,44.93v4.33h-1.39V44.93H209V43.81h4.65v1.12h-1.64Z"/><path class="cls-4" d="M218.34,49.27H217V47.55l-2-3.73h1.39l1.31,2.37,1.28-2.37h1.39l-2,3.69v1.76Z"/><path class="cls-5" d="M85.08,9.35a0.25,0.25,0,0,1,.28.28V13a0.25,0.25,0,0,1-.28.28H68.72v9.52H80.56a0.25,0.25,0,0,1,.28.28v3.35a0.25,0.25,0,0,1-.28.28H68.72v9.52H85.08a0.25,0.25,0,0,1,.28.28v3.35a0.25,0.25,0,0,1-.28.28h-20a0.25,0.25,0,0,1-.28-0.28V9.63a0.25,0.25,0,0,1,.28-0.28h20Z"/><path class="cls-5" d="M100.36,21a0.25,0.25,0,0,1,.26-0.17h3.33a0.29,0.29,0,0,1,.24.11,0.24,0.24,0,0,1,0,.26l-7,18.77a0.27,0.27,0,0,1-.28.19H94.49a0.25,0.25,0,0,1-.26-0.19l-7-18.77a0.28,0.28,0,0,1,0-.26,0.23,0.23,0,0,1,.21-0.11h3.33a0.27,0.27,0,0,1,.28.17l4.62,12.42Z"/><path class="cls-5" d="M115.7,20.8a9.65,9.65,0,0,1,9.67,9.65,9.67,9.67,0,1,1-16.51-6.83A9.35,9.35,0,0,1,115.7,20.8Zm0,15.71a6.09,6.09,0,0,0,6.06-6.06,6.05,6.05,0,1,0-10.32,4.28A5.76,5.76,0,0,0,115.7,36.52Z"/><path class="cls-5" d="M160.33,40.13a0.25,0.25,0,0,1-.28-0.28V9.56a0.25,0.25,0,0,1,.28-0.28h3.14a0.25,0.25,0,0,1,.28.28V39.85a0.25,0.25,0,0,1-.28.28h-3.14Z"/><path class="cls-5" d="M172.45,17.19a2,2,0,0,1-1.48-.61,2.05,2.05,0,0,1-.63-1.5,2,2,0,0,1,.63-1.48,2.09,2.09,0,0,1,3.57,1.48,2.09,2.09,0,0,1-.61,1.5A2,2,0,0,1,172.45,17.19Z"/><path class="cls-5" d="M187.62,20.8a9.65,9.65,0,0,1,9.67,9.65,9.67,9.67,0,1,1-16.51-6.83A9.35,9.35,0,0,1,187.62,20.8Zm0,15.71a6.09,6.09,0,0,0,6.06-6.06,6.05,6.05,0,1,0-10.32,4.28A5.76,5.76,0,0,0,187.62,36.52Z"/><rect class="cls-5" x="170.6" y="20.8" width="3.69" height="19.33" rx="0.97" ry="0.97"/><rect class="cls-5" x="129.06" y="9.27" width="3.69" height="30.86" rx="0.97" ry="0.97"/><path class="cls-5" d="M220,40.13h-3a0.33,0.33,0,0,1-.33-0.33V30.62a6.16,6.16,0,0,0-5.83-6.2,6.07,6.07,0,0,0-6.29,6.06v9.32a0.33,0.33,0,0,1-.33.33h-3a0.33,0.33,0,0,1-.33-0.33V30.68a9.81,9.81,0,0,1,9.39-9.88,9.69,9.69,0,0,1,10,9.68v9.32A0.33,0.33,0,0,1,220,40.13Z"/><path class="cls-5" d="M144.17,40.1a8.67,8.67,0,0,1-7.72-8.51V21.09a0.29,0.29,0,0,1,.29-0.29h3a0.29,0.29,0,0,1,.29.29V31.63a4.83,4.83,0,0,0,4.2,4.84,4.75,4.75,0,0,0,5.29-4.71V21.09a0.29,0.29,0,0,1,.29-0.29h3a0.29,0.29,0,0,1,.29.29V31.77A8.37,8.37,0,0,1,144.17,40.1Z"/><rect class="cls-5" x="156.88" y="20.79" width="10.03" height="3.62" rx="0.25" ry="0.25"/><rect class="cls-6" x="109.92" y="-0.79" width="1.85" height="92.07" transform="translate(156.09 -65.59) rotate(90)"/><rect class="cls-6" x="109.92" y="2.31" width="1.85" height="92.07" transform="translate(159.18 -62.5) rotate(90)"/><use id="MONOÇ_2-3" data-name="MONOÇ 2" width="208.57" height="208.57" transform="translate(3.54 2.93) scale(0.25)" xlink:href="#MONOÇ_2"/></svg>